<svg id="SvgjsSvg1006" width="1174.546875" height="921.015625" xmlns="http://www.w3.org/2000/svg" version="1.1" xmlns:xlink="http://www.w3.org/1999/xlink" xmlns:svgjs="http://svgjs.com/svgjs"><defs id="SvgjsDefs1007"><marker id="SvgjsMarker1048" markerWidth="14" markerHeight="10" refX="10" refY="5" viewBox="0 0 14 10" orient="auto" markerUnits="userSpaceOnUse" stroke-dasharray="0,0"><path id="SvgjsPath1049" d="M0,0 L14,5 L0,10 L0,0" fill="#323232" stroke="#323232" stroke-width="1"></path></marker><marker id="SvgjsMarker1058" markerWidth="14" markerHeight="10" refX="10" refY="5" viewBox="0 0 14 10" orient="auto" markerUnits="userSpaceOnUse" stroke-dasharray="0,0"><path id="SvgjsPath1059" d="M0,0 L14,5 L0,10 L0,0" fill="#323232" stroke="#323232" stroke-width="1"></path></marker><marker id="SvgjsMarker1083" markerWidth="14" markerHeight="10" refX="10" refY="5" viewBox="0 0 14 10" orient="auto" markerUnits="userSpaceOnUse" stroke-dasharray="0,0"><path id="SvgjsPath1084" d="M0,0 L14,5 L0,10 L0,0" fill="#323232" stroke="#323232" stroke-width="1"></path></marker><marker id="SvgjsMarker1091" markerWidth="14" markerHeight="10" refX="10" refY="5" viewBox="0 0 14 10" orient="auto" markerUnits="userSpaceOnUse" stroke-dasharray="0,0"><path id="SvgjsPath1092" d="M0,0 L14,5 L0,10 L0,0" fill="#323232" stroke="#323232" stroke-width="1"></path></marker><marker id="SvgjsMarker1103" markerWidth="14" markerHeight="10" refX="10" refY="5" viewBox="0 0 14 10" orient="auto" markerUnits="userSpaceOnUse" stroke-dasharray="0,0"><path id="SvgjsPath1104" d="M0,0 L14,5 L0,10 L0,0" fill="#323232" stroke="#323232" stroke-width="1"></path></marker><marker id="SvgjsMarker1111" markerWidth="14" markerHeight="10" refX="10" refY="5" viewBox="0 0 14 10" orient="auto" markerUnits="userSpaceOnUse" stroke-dasharray="0,0"><path id="SvgjsPath1112" d="M0,0 L14,5 L0,10 L0,0" fill="#323232" stroke="#323232" stroke-width="1"></path></marker><marker id="SvgjsMarker1127" markerWidth="14" markerHeight="10" refX="10" refY="5" viewBox="0 0 14 10" orient="auto" markerUnits="userSpaceOnUse" stroke-dasharray="0,0"><path id="SvgjsPath1128" d="M0,0 L14,5 L0,10 L0,0" fill="#323232" stroke="#323232" stroke-width="1"></path></marker><marker id="SvgjsMarker1131" markerWidth="14" markerHeight="10" refX="10" refY="5" viewBox="0 0 14 10" orient="auto" markerUnits="userSpaceOnUse" stroke-dasharray="0,0"><path id="SvgjsPath1132" d="M0,0 L14,5 L0,10 L0,0" fill="#323232" stroke="#323232" stroke-width="1"></path></marker><marker id="SvgjsMarker1141" markerWidth="14" markerHeight="10" refX="10" refY="5" viewBox="0 0 14 10" orient="auto" markerUnits="userSpaceOnUse" stroke-dasharray="0,0"><path id="SvgjsPath1142" d="M0,0 L14,5 L0,10 L0,0" fill="#323232" stroke="#323232" stroke-width="1"></path></marker><marker id="SvgjsMarker1149" markerWidth="14" markerHeight="10" refX="10" refY="5" viewBox="0 0 14 10" orient="auto" markerUnits="userSpaceOnUse" stroke-dasharray="0,0"><path id="SvgjsPath1150" d="M0,0 L14,5 L0,10 L0,0" fill="#323232" stroke="#323232" stroke-width="1"></path></marker><marker id="SvgjsMarker1157" markerWidth="14" markerHeight="10" refX="10" refY="5" viewBox="0 0 14 10" orient="auto" markerUnits="userSpaceOnUse" stroke-dasharray="0,0"><path id="SvgjsPath1158" d="M0,0 L14,5 L0,10 L0,0" fill="#323232" stroke="#323232" stroke-width="1"></path></marker><marker id="SvgjsMarker1169" markerWidth="14" markerHeight="10" refX="10" refY="5" viewBox="0 0 14 10" orient="auto" markerUnits="userSpaceOnUse" stroke-dasharray="0,0"><path id="SvgjsPath1170" d="M0,0 L14,5 L0,10 L0,0" fill="#323232" stroke="#323232" stroke-width="1"></path></marker><marker id="SvgjsMarker1177" markerWidth="14" markerHeight="10" refX="10" refY="5" viewBox="0 0 14 10" orient="auto" markerUnits="userSpaceOnUse" stroke-dasharray="0,0"><path id="SvgjsPath1178" d="M0,0 L14,5 L0,10 L0,0" fill="#323232" stroke="#323232" stroke-width="1"></path></marker><marker id="SvgjsMarker1187" markerWidth="14" markerHeight="10" refX="10" refY="5" viewBox="0 0 14 10" orient="auto" markerUnits="userSpaceOnUse" stroke-dasharray="0,0"><path id="SvgjsPath1188" d="M0,0 L14,5 L0,10 L0,0" fill="#323232" stroke="#323232" stroke-width="1"></path></marker><marker id="SvgjsMarker1197" markerWidth="14" markerHeight="10" refX="10" refY="5" viewBox="0 0 14 10" orient="auto" markerUnits="userSpaceOnUse" stroke-dasharray="0,0"><path id="SvgjsPath1198" d="M0,0 L14,5 L0,10 L0,0" fill="#323232" stroke="#323232" stroke-width="1"></path></marker><marker id="SvgjsMarker1205" markerWidth="14" markerHeight="10" refX="10" refY="5" viewBox="0 0 14 10" orient="auto" markerUnits="userSpaceOnUse" stroke-dasharray="0,0"><path id="SvgjsPath1206" d="M0,0 L14,5 L0,10 L0,0" fill="#323232" stroke="#323232" stroke-width="1"></path></marker><marker id="SvgjsMarker1215" markerWidth="14" markerHeight="10" refX="10" refY="5" viewBox="0 0 14 10" orient="auto" markerUnits="userSpaceOnUse" stroke-dasharray="0,0"><path id="SvgjsPath1216" d="M0,0 L14,5 L0,10 L0,0" fill="#323232" stroke="#323232" stroke-width="1"></path></marker><marker id="SvgjsMarker1225" markerWidth="14" markerHeight="10" refX="10" refY="5" viewBox="0 0 14 10" orient="auto" markerUnits="userSpaceOnUse" stroke-dasharray="0,0"><path id="SvgjsPath1226" d="M0,0 L14,5 L0,10 L0,0" fill="#323232" stroke="#323232" stroke-width="1"></path></marker></defs><rect id="SvgjsRect1008" width="1174.546875" height="921.015625" fill="#ffffff"></rect><g id="SvgjsG1009" transform="translate(25.006240844726562,25.006248474121094)"><path id="SvgjsPath1010" d="M 0 0L 181.40000915527344 0L 197.40000915527344 16L 197.40000915527344 47.400001525878906L 0 47.400001525878906L 0 0Z" stroke="none" fill-opacity="1" fill="#ffffaa"></path><path id="SvgjsPath1011" d="M 181.40000915527344 0L 181.40000915527344 16L 197.40000915527344 16Z" stroke="none" fill-opacity="1" fill="#cdcdcd"></path><path id="SvgjsPath1012" d="M 0 0L 181.40000915527344 0L 197.40000915527344 16L 197.40000915527344 47.400001525878906L 0 47.400001525878906L 0 0Z" stroke="none" fill="none"></path><g id="SvgjsG1013"><text id="SvgjsText1014" font-family="微软雅黑" text-anchor="start" font-size="13px" width="178px" fill="#323232" font-weight="400" align="middle" lineHeight="125%" anchor="start" family="微软雅黑" size="13px" weight="400" font-style="" opacity="1" y="14.075000762939453" transform="rotate(0)"><tspan id="SvgjsTspan1015" dy="16" x="10"><tspan id="SvgjsTspan1016" style="text-decoration:;">云主机创建时序图</tspan></tspan></text></g></g><g id="SvgjsG1017" transform="translate(25.006240844726562,96.0160140991211)"><path id="SvgjsPath1018" d="M 60 30L 60 800" stroke-dasharray="3,4" stroke="rgba(50,50,50,1)" stroke-width="2" fill="none"></path><path id="SvgjsPath1019" d="M 0 0L 120 0L 120 30L 0 30Z" stroke="rgba(50,50,50,1)" stroke-width="2" fill-opacity="1" fill="#ffffff"></path><g id="SvgjsG1020"><text id="SvgjsText1021" font-family="微软雅黑" text-anchor="middle" font-size="13px" width="100px" fill="#323232" font-weight="400" align="middle" lineHeight="125%" anchor="middle" family="微软雅黑" size="13px" weight="400" font-style="" opacity="1" y="5.375" transform="rotate(0)"><tspan id="SvgjsTspan1022" dy="16" x="60"><tspan id="SvgjsTspan1023" style="text-decoration:;">云主机工单申请</tspan></tspan></text></g></g><g id="SvgjsG1024" transform="translate(735.7562408447266,91.49201747518964)"><path id="SvgjsPath1025" d="M 75 30L 75 800" stroke-dasharray="3,4" stroke="rgba(50,50,50,1)" stroke-width="2" fill="none"></path><path id="SvgjsPath1026" d="M 0 0L 150 0L 150 30L 0 30Z" stroke="rgba(50,50,50,1)" stroke-width="2" fill-opacity="1" fill="#ffffff"></path><g id="SvgjsG1027"><text id="SvgjsText1028" font-family="微软雅黑" text-anchor="middle" font-size="13px" width="130px" fill="#323232" font-weight="400" align="middle" lineHeight="125%" anchor="middle" family="微软雅黑" size="13px" weight="400" font-style="" opacity="1" y="5.375" transform="rotate(0)"><tspan id="SvgjsTspan1029" dy="16" x="75"><tspan id="SvgjsTspan1030" style="text-decoration:;">瀚海云IAAS服务</tspan></tspan></text></g></g><g id="SvgjsG1031" transform="translate(453.50624084472656,95.99659729935229)"><path id="SvgjsPath1032" d="M 72.45000457763672 30L 72.45000457763672 800.0388335995376" stroke-dasharray="3,4" stroke="rgba(50,50,50,1)" stroke-width="2" fill="none"></path><path id="SvgjsPath1033" d="M 0 0L 144.90000915527344 0L 144.90000915527344 30L 0 30Z" stroke="rgba(50,50,50,1)" stroke-width="2" fill-opacity="1" fill="#ffffff"></path><g id="SvgjsG1034"><text id="SvgjsText1035" font-family="微软雅黑" text-anchor="middle" font-size="13px" width="125px" fill="#323232" font-weight="400" align="middle" lineHeight="125%" anchor="middle" family="微软雅黑" size="13px" weight="400" font-style="" opacity="1" y="5.375" transform="rotate(0)"><tspan id="SvgjsTspan1036" dy="16" x="72.5"><tspan id="SvgjsTspan1037" style="text-decoration:;">瀚海云工作流服务</tspan></tspan></text></g></g><g id="SvgjsG1038" transform="translate(510.50624084472656,169.0262756254524)"><path id="SvgjsPath1039" d="M 0 4Q 0 0 4 0L 26 0Q 30 0 30 4L 30 85.3799743745476Q 30 89.3799743745476 26 89.3799743745476L 4 89.3799743745476Q 0 89.3799743745476 0 85.3799743745476L 0 4Z" stroke="rgba(50,50,50,1)" stroke-width="2" fill-opacity="1" fill="#ffffff"></path></g><g id="SvgjsG1040" transform="translate(762.7876883298159,191.7162628127262)"><path id="SvgjsPath1041" d="M 0 0L 119.61856167018414 0L 119.61856167018414 58.6899871872738L 0 58.6899871872738Z" stroke="rgba(50,50,50,1)" stroke-width="2" fill-opacity="1" fill="#ffffff"></path><g id="SvgjsG1042"><text id="SvgjsText1043" font-family="微软雅黑" text-anchor="middle" font-size="13px" width="100px" fill="#323232" font-weight="400" align="middle" lineHeight="125%" anchor="middle" family="微软雅黑" size="13px" weight="400" font-style="" opacity="1" y="19.7199935936369" transform="rotate(0)"><tspan id="SvgjsTspan1044" dy="16" x="60"><tspan id="SvgjsTspan1045" style="text-decoration:;">VmCreateCheck</tspan></tspan></text></g></g><g id="SvgjsG1046"><path id="SvgjsPath1047" d="M509.90624237060547 176.2855742525218L431.0562438964844 176.2855742525218L431.0562438964844 298.3049645330757" stroke-dasharray="3,3" stroke="#323232" stroke-width="2" fill="none" marker-end="url(#SvgjsMarker1048)"></path><rect id="SvgjsRect1050" width="52" height="16" x="405.0562438964844" y="189.87027015573818" fill="#ffffff"></rect><text id="SvgjsText1051" font-family="微软雅黑" text-anchor="middle" font-size="13px" width="52px" fill="#323232" font-weight="400" align="top" lineHeight="16px" anchor="middle" family="微软雅黑" size="13px" weight="400" font-style="" opacity="1" y="188.24527015573818" transform="rotate(0)"><tspan id="SvgjsTspan1052" dy="16" x="431.0562438964844"><tspan id="SvgjsTspan1053" style="text-decoration:;">生成工单</tspan></tspan></text></g><g id="SvgjsG1054" transform="translate(74.00624084472656,403.6062469482422)"><path id="SvgjsPath1055" d="M 0 4Q 0 0 4 0L 26 0Q 30 0 30 4L 30 465.5500030517578Q 30 469.5500030517578 26 469.5500030517578L 4 469.5500030517578Q 0 469.5500030517578 0 465.5500030517578L 0 4Z" stroke="rgba(50,50,50,1)" stroke-width="2" fill-opacity="1" fill="#ffffff"></path></g><g id="SvgjsG1056"><path id="SvgjsPath1057" d="M104.90624237060547 435.65625L251.15624618530273 435.65625L251.15624618530273 208.40625L398.40625 208.40625" stroke="#323232" stroke-width="2" fill="none" marker-end="url(#SvgjsMarker1058)"></path><rect id="SvgjsRect1060" width="65" height="16" x="218.65624618530273" y="313.53125" fill="#ffffff"></rect><text id="SvgjsText1061" font-family="微软雅黑" text-anchor="middle" font-size="13px" width="65px" fill="#323232" font-weight="400" align="top" lineHeight="16px" anchor="middle" family="微软雅黑" size="13px" weight="400" font-style="" opacity="1" y="311.90625" transform="rotate(0)"><tspan id="SvgjsTspan1062" dy="16" x="251.15624618530273"><tspan id="SvgjsTspan1063" style="text-decoration:;">申请云主机</tspan></tspan></text></g><g id="SvgjsG1064" transform="translate(510.50624084472656,315.48898791801184)"><path id="SvgjsPath1065" d="M 0 4Q 0 0 4 0L 26 0Q 30 0 30 4L 30 98.02202034927905Q 30 102.02202034927905 26 102.02202034927905L 4 102.02202034927905Q 0 102.02202034927905 0 98.02202034927905L 0 4Z" stroke="rgba(50,50,50,1)" stroke-width="2" fill-opacity="1" fill="#ffffff"></path></g><g id="SvgjsG1066" transform="translate(510.50624084472656,474.59374618530273)"><path id="SvgjsPath1067" d="M 0 4Q 0 0 4 0L 26 0Q 30 0 30 4L 30 96Q 30 100 26 100L 4 100Q 0 100 0 96L 0 4Z" stroke="rgba(50,50,50,1)" stroke-width="2" fill-opacity="1" fill="#ffffff"></path></g><g id="SvgjsG1068" transform="translate(792.0562438964844,304.6062469482422)"><path id="SvgjsPath1069" d="M 0 4Q 0 0 4 0L 26 0Q 30 0 30 4L 30 77.80000305175781Q 30 81.80000305175781 26 81.80000305175781L 4 81.80000305175781Q 0 81.80000305175781 0 77.80000305175781L 0 4Z" stroke="rgba(50,50,50,1)" stroke-width="2" fill-opacity="1" fill="#ffffff"></path></g><g id="SvgjsG1070" transform="translate(510.50624084472656,649.134229650721)"><path id="SvgjsPath1071" d="M 0 4Q 0 0 4 0L 26 0Q 30 0 30 4L 30 96Q 30 100 26 100L 4 100Q 0 100 0 96L 0 4Z" stroke="rgba(50,50,50,1)" stroke-width="2" fill-opacity="1" fill="#ffffff"></path></g><g id="SvgjsG1072" transform="translate(999.5562438964844,96.0160140991211)"><path id="SvgjsPath1073" d="M 75 30L 75 800" stroke-dasharray="3,4" stroke="rgba(50,50,50,1)" stroke-width="2" fill="none"></path><path id="SvgjsPath1074" d="M 0 0L 150 0L 150 30L 0 30Z" stroke="rgba(50,50,50,1)" stroke-width="2" fill-opacity="1" fill="#ffffff"></path><g id="SvgjsG1075"><text id="SvgjsText1076" font-family="微软雅黑" text-anchor="middle" font-size="13px" width="130px" fill="#323232" font-weight="400" align="middle" lineHeight="125%" anchor="middle" family="微软雅黑" size="13px" weight="400" font-style="" opacity="1" y="5.375" transform="rotate(0)"><tspan id="SvgjsTspan1077" dy="16" x="75"><tspan id="SvgjsTspan1078" style="text-decoration:;">瀚海云任务中心</tspan></tspan></text></g></g><g id="SvgjsG1079" transform="translate(1059.5562438964844,176.90625)"><path id="SvgjsPath1080" d="M 0 4Q 0 0 4 0L 26 0Q 30 0 30 4L 30 668.5Q 30 672.5 26 672.5L 4 672.5Q 0 672.5 0 668.5L 0 4Z" stroke="rgba(50,50,50,1)" stroke-width="2" fill-opacity="1" fill="#ffffff"></path></g><g id="SvgjsG1081"><path id="SvgjsPath1082" d="M509.50624084472656 841.4920174751896L305.956241607666 841.4920174751896L305.956241607666 839.40625L105.00624237060546 839.40625" stroke-dasharray="8,5" stroke="#323232" stroke-width="2" fill="none" marker-end="url(#SvgjsMarker1083)"></path><rect id="SvgjsRect1085" width="52" height="16" x="280.2133578700712" y="833.4920174751896" fill="#ffffff"></rect><text id="SvgjsText1086" font-family="微软雅黑" text-anchor="middle" font-size="13px" width="52px" fill="#323232" font-weight="400" align="top" lineHeight="16px" anchor="middle" family="微软雅黑" size="13px" weight="400" font-style="" opacity="1" y="831.8670174751896" transform="rotate(0)"><tspan id="SvgjsTspan1087" dy="16" x="306.2133578700712"><tspan id="SvgjsTspan1088" style="text-decoration:;">邮件通知</tspan></tspan></text></g><g id="SvgjsG1089"><path id="SvgjsPath1090" d="M541.5062408447266 213.7162628127262L651.6469645872712 213.7162628127262L651.6469645872712 221.0612564063631L759.1876883298158 221.0612564063631" stroke="#323232" stroke-width="2" fill="none" marker-end="url(#SvgjsMarker1091)"></path><rect id="SvgjsRect1093" width="117" height="16" x="593.1469645872712" y="208.08875960954464" fill="#ffffff"></rect><text id="SvgjsText1094" font-family="微软雅黑" text-anchor="middle" font-size="13px" width="117px" fill="#323232" font-weight="400" align="top" lineHeight="16px" anchor="middle" family="微软雅黑" size="13px" weight="400" font-style="" opacity="1" y="206.46375960954464" transform="rotate(0)"><tspan id="SvgjsTspan1095" dy="16" x="651.6469645872712"><tspan id="SvgjsTspan1096" style="text-decoration:;">检测预算，主机名等</tspan></tspan></text></g><g id="SvgjsG1097" transform="translate(408.8062438964844,304.6062469482422)"><path id="SvgjsPath1098" d="M 0 20C 0 -6.666666666666666 40 -6.666666666666666 40 20C 40 46.66666666666667 0 46.66666666666667 0 20ZM 20 0L 26 5M 20 0L 26 -5" stroke="rgba(50,50,50,1)" stroke-width="2" fill-opacity="1" fill="#ffffff"></path><g id="SvgjsG1099"><text id="SvgjsText1100" font-family="微软雅黑" text-anchor="middle" font-size="13px" width="80px" fill="#323232" font-weight="400" align="middle" lineHeight="125%" anchor="middle" family="微软雅黑" size="13px" weight="400" font-style="" opacity="1" y="45.375" transform="rotate(0)"></text></g></g><g id="SvgjsG1101"><path id="SvgjsPath1102" d="M428.8062438964844 345.6062469482422L428.8062438964844 366.49999809265137L506.90624084472654 366.49999809265137" stroke="#323232" stroke-width="2" fill="none" marker-end="url(#SvgjsMarker1103)"></path><rect id="SvgjsRect1105" width="78" height="16" x="418.40936679840087" y="358.49999809265137" fill="#ffffff"></rect><text id="SvgjsText1106" font-family="微软雅黑" text-anchor="middle" font-size="13px" width="78px" fill="#323232" font-weight="400" align="top" lineHeight="16px" anchor="middle" family="微软雅黑" size="13px" weight="400" font-style="" opacity="1" y="356.87499809265137" transform="rotate(0)"><tspan id="SvgjsTspan1107" dy="16" x="457.40936679840087"><tspan id="SvgjsTspan1108" style="text-decoration:;">项目经理审核</tspan></tspan></text></g><g id="SvgjsG1109"><path id="SvgjsPath1110" d="M523.40625 417.5110082672909L523.40625 445.5523772262968L480.50624084472656 445.5523772262968L480.50624084472656 524.5937461853027L506.90624084472654 524.5937461853027" stroke="#323232" stroke-width="2" fill="none" marker-end="url(#SvgjsMarker1111)"></path><rect id="SvgjsRect1113" width="43" height="16" x="459.00624084472656" y="454.8023726486601" fill="#ffffff"></rect><text id="SvgjsText1114" font-family="微软雅黑" text-anchor="middle" font-size="13px" width="43px" fill="#323232" font-weight="400" align="top" lineHeight="16px" anchor="middle" family="微软雅黑" size="13px" weight="400" font-style="" opacity="1" y="453.1773726486601" transform="rotate(0)"><tspan id="SvgjsTspan1115" dy="16" x="480.50624084472656"><tspan id="SvgjsTspan1116" style="text-decoration:;">SA审核</tspan></tspan></text></g><g id="SvgjsG1117" transform="translate(358.40625,526.2187538146973)"><path id="SvgjsPath1118" d="M 0 24.187496185302734C 0 -8.062498728434244 58 -8.062498728434244 58 24.187496185302734C 58 56.43749109903971 0 56.43749109903971 0 24.187496185302734Z" stroke="rgba(50,50,50,1)" stroke-width="2" fill-opacity="1" fill="#ffffff"></path><g id="SvgjsG1119"><text id="SvgjsText1120" font-family="微软雅黑" text-anchor="middle" font-size="13px" width="38px" fill="#323232" font-weight="400" align="middle" lineHeight="125%" anchor="middle" family="微软雅黑" size="13px" weight="400" font-style="" opacity="1" y="6.562496185302734" transform="rotate(0)"><tspan id="SvgjsTspan1121" dy="16" x="29"><tspan id="SvgjsTspan1122" style="text-decoration:;">扣除</tspan></tspan><tspan id="SvgjsTspan1123" dy="16" x="29"><tspan id="SvgjsTspan1124" style="text-decoration:;">预算</tspan></tspan></text></g></g><g id="SvgjsG1125"><path id="SvgjsPath1126" d="M469.40625 471.40625L469.40625 549.40625L420.00625 549.40625" stroke-dasharray="8,5" stroke="#323232" stroke-width="2" fill="none" marker-end="url(#SvgjsMarker1127)"></path></g><g id="SvgjsG1129"><path id="SvgjsPath1130" d="M523.40625 574.40625L523.40625 603.40625L480.50624084472656 603.40625L480.50624084472656 699.134229650721L506.90624084472654 699.134229650721" stroke="#323232" stroke-width="2" fill="none" marker-end="url(#SvgjsMarker1131)"></path><rect id="SvgjsRect1133" width="52" height="16" x="454.50624084472656" y="620.5202352477238" fill="#ffffff"></rect><text id="SvgjsText1134" font-family="微软雅黑" text-anchor="middle" font-size="13px" width="52px" fill="#323232" font-weight="400" align="top" lineHeight="16px" anchor="middle" family="微软雅黑" size="13px" weight="400" font-style="" opacity="1" y="618.8952352477238" transform="rotate(0)"><tspan id="SvgjsTspan1135" dy="16" x="480.50624084472656"><tspan id="SvgjsTspan1136" style="text-decoration:;">后台任务</tspan></tspan></text></g><g id="SvgjsG1137" transform="translate(510.50624084472656,791.4920174751896)"><path id="SvgjsPath1138" d="M 0 4Q 0 0 4 0L 26 0Q 30 0 30 4L 30 96Q 30 100 26 100L 4 100Q 0 100 0 96L 0 4Z" stroke="rgba(50,50,50,1)" stroke-width="2" fill-opacity="1" fill="#ffffff"></path></g><g id="SvgjsG1139"><path id="SvgjsPath1140" d="M518.40625 749.40625L518.40625 769.9491337375948L480.50624084472656 769.9491337375948L480.50624084472656 841.4920174751896L506.90624084472654 841.4920174751896" stroke="#323232" stroke-width="2" fill="none" marker-end="url(#SvgjsMarker1141)"></path><rect id="SvgjsRect1143" width="28" height="16" x="466.5062408447265" y="781.6991291599581" fill="#ffffff"></rect><text id="SvgjsText1144" font-family="微软雅黑" text-anchor="middle" font-size="13px" width="28px" fill="#323232" font-weight="400" align="top" lineHeight="16px" anchor="middle" family="微软雅黑" size="13px" weight="400" font-style="" opacity="1" y="780.0741291599581" transform="rotate(0)"><tspan id="SvgjsTspan1145" dy="16" x="480.5062408447265"><tspan id="SvgjsTspan1146" style="text-decoration:;">END</tspan></tspan></text></g><g id="SvgjsG1147"><path id="SvgjsPath1148" d="M541.5062408447266 699.134229650721L666.2812423706055 699.134229650721L666.2812423706055 345.5062484741211L788.4562438964844 345.5062484741211" stroke="#323232" stroke-width="2" fill="none" marker-end="url(#SvgjsMarker1149)"></path><rect id="SvgjsRect1151" width="65" height="16" x="633.7812423706055" y="515.620239062421" fill="#ffffff"></rect><text id="SvgjsText1152" font-family="微软雅黑" text-anchor="middle" font-size="13px" width="65px" fill="#323232" font-weight="400" align="top" lineHeight="16px" anchor="middle" family="微软雅黑" size="13px" weight="400" font-style="" opacity="1" y="513.995239062421" transform="rotate(0)"><tspan id="SvgjsTspan1153" dy="16" x="666.2812423706055"><tspan id="SvgjsTspan1154" style="text-decoration:;">创建云主机</tspan></tspan></text></g><g id="SvgjsG1155"><path id="SvgjsPath1156" d="M823.0562438964844 345.5062484741211L941.2312469482422 345.5062484741211L941.2312469482422 262.40625L1056.80625 262.40625" stroke="#323232" stroke-width="2" fill="none" marker-end="url(#SvgjsMarker1157)"></path><rect id="SvgjsRect1159" width="86" height="16" x="898.2312469482422" y="297.2562492370605" fill="#ffffff"></rect><text id="SvgjsText1160" font-family="微软雅黑" text-anchor="middle" font-size="13px" width="86px" fill="#323232" font-weight="400" align="top" lineHeight="16px" anchor="middle" family="微软雅黑" size="13px" weight="400" font-style="" opacity="1" y="295.6312492370605" transform="rotate(0)"><tspan id="SvgjsTspan1161" dy="16" x="941.2312469482422"><tspan id="SvgjsTspan1162" style="text-decoration:;">调用组任务API</tspan></tspan></text></g><g id="SvgjsG1163" transform="translate(796.0562438964844,438.0062446594238)"><path id="SvgjsPath1164" d="M 0 4Q 0 0 4 0L 26 0Q 30 0 30 4L 30 42.20000457763672Q 30 46.20000457763672 26 46.20000457763672L 4 46.20000457763672Q 0 46.20000457763672 0 42.20000457763672L 0 4Z" stroke="rgba(50,50,50,1)" stroke-width="2" fill-opacity="1" fill="#ffffff"></path></g><g id="SvgjsG1165" transform="translate(796.0562438964844,516.8062438964844)"><path id="SvgjsPath1166" d="M 0 4Q 0 0 4 0L 26 0Q 30 0 30 4L 30 41.600006103515625Q 30 45.600006103515625 26 45.600006103515625L 4 45.600006103515625Q 0 45.600006103515625 0 41.600006103515625L 0 4Z" stroke="rgba(50,50,50,1)" stroke-width="2" fill-opacity="1" fill="#ffffff"></path></g><g id="SvgjsG1167"><path id="SvgjsPath1168" d="M1059.40625 475.80624771118164L943.2312469482422 475.80624771118164L943.2312469482422 461.1062469482422L829.6562438964844 461.1062469482422" stroke="#323232" stroke-width="2" fill="none" marker-end="url(#SvgjsMarker1169)"></path><rect id="SvgjsRect1171" width="52" height="16" x="917.2312469482422" y="461.756247329712" fill="#ffffff"></rect><text id="SvgjsText1172" font-family="微软雅黑" text-anchor="middle" font-size="13px" width="52px" fill="#323232" font-weight="400" align="top" lineHeight="16px" anchor="middle" family="微软雅黑" size="13px" weight="400" font-style="" opacity="1" y="460.131247329712" transform="rotate(0)"><tspan id="SvgjsTspan1173" dy="16" x="943.2312469482422"><tspan id="SvgjsTspan1174" style="text-decoration:;">创建网络</tspan></tspan></text></g><g id="SvgjsG1175"><path id="SvgjsPath1176" d="M1059.40625 567.40625L943.2312469482422 567.40625L943.2312469482422 539.6062469482422L829.6562438964844 539.6062469482422" stroke="#323232" stroke-width="2" fill="none" marker-end="url(#SvgjsMarker1177)"></path><rect id="SvgjsRect1179" width="52" height="16" x="917.2312469482422" y="546.806248474121" fill="#ffffff"></rect><text id="SvgjsText1180" font-family="微软雅黑" text-anchor="middle" font-size="13px" width="52px" fill="#323232" font-weight="400" align="top" lineHeight="16px" anchor="middle" family="微软雅黑" size="13px" weight="400" font-style="" opacity="1" y="545.181248474121" transform="rotate(0)"><tspan id="SvgjsTspan1181" dy="16" x="943.2312469482422"><tspan id="SvgjsTspan1182" style="text-decoration:;">创建云盘</tspan></tspan></text></g><g id="SvgjsG1183" transform="translate(796.0562438964844,595.0062446594238)"><path id="SvgjsPath1184" d="M 0 4Q 0 0 4 0L 26 0Q 30 0 30 4L 30 35.600006103515625Q 30 39.600006103515625 26 39.600006103515625L 4 39.600006103515625Q 0 39.600006103515625 0 35.600006103515625L 0 4Z" stroke="rgba(50,50,50,1)" stroke-width="2" fill-opacity="1" fill="#ffffff"></path></g><g id="SvgjsG1185"><path id="SvgjsPath1186" d="M1059.40625 668.40625L943.2312469482422 668.40625L943.2312469482422 614.8062477111816L829.6562438964844 614.8062477111816" stroke="#323232" stroke-width="2" fill="none" marker-end="url(#SvgjsMarker1187)"></path><rect id="SvgjsRect1189" width="52" height="16" x="917.2312469482422" y="634.9062488555908" fill="#ffffff"></rect><text id="SvgjsText1190" font-family="微软雅黑" text-anchor="middle" font-size="13px" width="52px" fill="#323232" font-weight="400" align="top" lineHeight="16px" anchor="middle" family="微软雅黑" size="13px" weight="400" font-style="" opacity="1" y="633.2812488555908" transform="rotate(0)"><tspan id="SvgjsTspan1191" dy="16" x="943.2312469482422"><tspan id="SvgjsTspan1192" style="text-decoration:;">创建主机</tspan></tspan></text></g><g id="SvgjsG1193" transform="translate(796.0562438964844,667.2062454223633)"><path id="SvgjsPath1194" d="M 0 4Q 0 0 4 0L 26 0Q 30 0 30 4L 30 35.600006103515625Q 30 39.600006103515625 26 39.600006103515625L 4 39.600006103515625Q 0 39.600006103515625 0 35.600006103515625L 0 4Z" stroke="rgba(50,50,50,1)" stroke-width="2" fill-opacity="1" fill="#ffffff"></path></g><g id="SvgjsG1195"><path id="SvgjsPath1196" d="M1059.40625 747.40625L943.2312469482422 747.40625L943.2312469482422 687.0062484741211L829.6562438964844 687.0062484741211" stroke="#323232" stroke-width="2" fill="none" marker-end="url(#SvgjsMarker1197)"></path><rect id="SvgjsRect1199" width="61" height="16" x="912.7312469482422" y="710.5062492370605" fill="#ffffff"></rect><text id="SvgjsText1200" font-family="微软雅黑" text-anchor="middle" font-size="13px" width="61px" fill="#323232" font-weight="400" align="top" lineHeight="16px" anchor="middle" family="微软雅黑" size="13px" weight="400" font-style="" opacity="1" y="708.8812492370605" transform="rotate(0)"><tspan id="SvgjsTspan1201" dy="16" x="943.2312469482422"><tspan id="SvgjsTspan1202" style="text-decoration:;">同步cmdb</tspan></tspan></text></g><g id="SvgjsG1203"><path id="SvgjsPath1204" d="M1063.40625 815.6062469482422L944.7312469482422 815.6062469482422L944.7312469482422 768.9342327024788L829.6562438964844 768.9342327024788" stroke="#323232" stroke-width="2" fill="none" marker-end="url(#SvgjsMarker1205)"></path><rect id="SvgjsRect1207" width="65" height="16" x="912.2312469482422" y="786.0702398253605" fill="#ffffff"></rect><text id="SvgjsText1208" font-family="微软雅黑" text-anchor="middle" font-size="13px" width="65px" fill="#323232" font-weight="400" align="top" lineHeight="16px" anchor="middle" family="微软雅黑" size="13px" weight="400" font-style="" opacity="1" y="784.4452398253605" transform="rotate(0)"><tspan id="SvgjsTspan1209" dy="16" x="944.7312469482422"><tspan id="SvgjsTspan1210" style="text-decoration:;">主机名解析</tspan></tspan></text></g><g id="SvgjsG1211" transform="translate(796.0562438964844,749.134229650721)"><path id="SvgjsPath1212" d="M 0 4Q 0 0 4 0L 26 0Q 30 0 30 4L 30 35.600006103515625Q 30 39.600006103515625 26 39.600006103515625L 4 39.600006103515625Q 0 39.600006103515625 0 35.600006103515625L 0 4Z" stroke="rgba(50,50,50,1)" stroke-width="2" fill-opacity="1" fill="#ffffff"></path></g><g id="SvgjsG1213"><path id="SvgjsPath1214" d="M1073.40625 849.6062469482422L1073.40625 878.6062469482422L866.0562438964844 878.6062469482422L866.0562438964844 841.6062469482422L836.0562438964844 841.6062469482422" stroke="#323232" stroke-width="2" fill="none" marker-end="url(#SvgjsMarker1215)"></path><rect id="SvgjsRect1217" width="52" height="16" x="924.7312469482422" y="870.6062469482422" fill="#ffffff"></rect><text id="SvgjsText1218" font-family="微软雅黑" text-anchor="middle" font-size="13px" width="52px" fill="#323232" font-weight="400" align="top" lineHeight="16px" anchor="middle" family="微软雅黑" size="13px" weight="400" font-style="" opacity="1" y="868.9812469482422" transform="rotate(0)"><tspan id="SvgjsTspan1219" dy="16" x="950.7312469482422"><tspan id="SvgjsTspan1220" style="text-decoration:;">任务回调</tspan></tspan></text></g><g id="SvgjsG1221" transform="translate(796.0562438964844,821.6920144234318)"><path id="SvgjsPath1222" d="M 0 4Q 0 0 4 0L 26 0Q 30 0 30 4L 30 35.600006103515625Q 30 39.600006103515625 26 39.600006103515625L 4 39.600006103515625Q 0 39.600006103515625 0 35.600006103515625L 0 4Z" stroke="rgba(50,50,50,1)" stroke-width="2" fill-opacity="1" fill="#ffffff"></path></g><g id="SvgjsG1223"><path id="SvgjsPath1224" d="M795.0562438964844 841.4920174751896L668.2812423706055 841.4920174751896L668.2812423706055 699.134229650721L544.1062408447266 699.134229650721" stroke="#323232" stroke-width="2" fill="none" marker-end="url(#SvgjsMarker1225)"></path><rect id="SvgjsRect1227" width="91" height="16" x="622.7812423706055" y="763.6131235629553" fill="#ffffff"></rect><text id="SvgjsText1228" font-family="微软雅黑" text-anchor="middle" font-size="13px" width="91px" fill="#323232" font-weight="400" align="top" lineHeight="16px" anchor="middle" family="微软雅黑" size="13px" weight="400" font-style="" opacity="1" y="761.9881235629553" transform="rotate(0)"><tspan id="SvgjsTspan1229" dy="16" x="668.2812423706055"><tspan id="SvgjsTspan1230" style="text-decoration:;">云主机工单回调</tspan></tspan></text></g></svg>